# xmcd
# Copyright (C) 1995-1998 Ti Kan
#
# Track frame offsets:
#       150
#       14040
#       47220
#       76270
#       112702
#       154197
#
# Disc length: 2550 seconds
#
# Revision: 2
# Processed by: cddbd v1.4PL0 Copyright (c) Steve Scherf et al.
# Submitted via: CD-Transfer v1.0
#
DISCID=3f09f406
DTITLE=Shakedown - At Night Remix
DYEAR=2002
DGENRE=
TTITLE0=At Night - Defected Radio Edit
TTITLE1=At Night - Mousse T's Feel Good Mix
TTITLE2=At Night - Alan Braxe Remix
TTITLE3=At Night - Kid Crème Remix
TTITLE4=At Night - Album Mix
TTITLE5=Data Track
EXTD=
EXTT0=
EXTT1=
EXTT2=
EXTT3=
EXTT4=
EXTT5=
PLAYORDER=
